<svg width="44" height="44" viewBox="0 0 44 44" fill="none" xmlns="http://www.w3.org/2000/svg">
<path d="M36.6666 5.5H7.33329C6.36083 5.5 5.4282 5.88631 4.74057 6.57394C4.05293 7.26157 3.66663 8.19421 3.66663 9.16667V12.8333C3.67049 13.4732 3.84174 14.101 4.16337 14.6541C4.48499 15.2073 4.94579 15.6667 5.49996 15.9867V34.8333C5.49996 35.8058 5.88627 36.7384 6.5739 37.4261C7.26153 38.1137 8.19417 38.5 9.16663 38.5H34.8333C35.8058 38.5 36.7384 38.1137 37.426 37.4261C38.1137 36.7384 38.5 35.8058 38.5 34.8333V15.9867C39.0541 15.6667 39.5149 15.2073 39.8366 14.6541C40.1582 14.101 40.3294 13.4732 40.3333 12.8333V9.16667C40.3333 8.19421 39.947 7.26157 39.2593 6.57394C38.5717 5.88631 37.6391 5.5 36.6666 5.5ZM7.33329 9.16667H36.6666V12.8333H7.33329V9.16667ZM9.16663 34.8333V16.5H34.8333V34.8333H9.16663Z" fill="#0083CA"/>
<path d="M14.6666 20.1667H29.3333V23.8333H14.6666V20.1667Z" fill="#0083CA"/>
</svg>
