<svg width="38" height="38" viewBox="0 0 32 32" fill="none" xmlns="http://www.w3.org/2000/svg">
<path d="M28 16V22H4V6H11V4H4C3.46957 4 2.96086 4.21071 2.58579 4.58579C2.21071 4.96086 2 5.46957 2 6V22C2 22.5304 2.21071 23.0391 2.58579 23.4142C2.96086 23.7893 3.46957 24 4 24H12V28H8V30H24V28H20V24H28C28.5304 24 29.0391 23.7893 29.4142 23.4142C29.7893 23.0391 30 22.5304 30 22V16H28ZM18 28H14V24H18V28Z" fill="white"/>
<path d="M18 18H17.99C17.7745 17.9977 17.5656 17.9259 17.3942 17.7953C17.2228 17.6647 17.0982 17.4822 17.039 17.275L15.246 11H11V8.99999H16C16.2174 8.99987 16.4288 9.07057 16.6024 9.20139C16.776 9.3322 16.9022 9.51601 16.962 9.72499L18.036 13.485L21.045 3.70499C21.1099 3.50204 21.2371 3.3247 21.4086 3.19814C21.58 3.07159 21.7869 3.00226 22 2.99999C22.2107 2.99682 22.4168 3.06165 22.5878 3.18486C22.7587 3.30807 22.8854 3.4831 22.949 3.68399L24.72 8.99999H30V11H24C23.79 11 23.5854 10.934 23.415 10.8112C23.2447 10.6885 23.1173 10.5152 23.051 10.316L22.038 7.27599L18.956 17.294C18.8931 17.4984 18.7663 17.6773 18.5943 17.8044C18.4222 17.9315 18.2139 18 18 18Z" fill="white"/>
</svg>
