<svg width="42" height="42" viewBox="0 0 42 42" fill="none" xmlns="http://www.w3.org/2000/svg">
<path d="M27.5625 30.1875C29.0122 30.1875 30.1875 29.0122 30.1875 27.5625C30.1875 26.1128 29.0122 24.9375 27.5625 24.9375C26.1128 24.9375 24.9375 26.1128 24.9375 27.5625C24.9375 29.0122 26.1128 30.1875 27.5625 30.1875Z" fill="#0083CA"/>
<path d="M9.1875 11.8125C10.6372 11.8125 11.8125 10.6372 11.8125 9.1875C11.8125 7.73775 10.6372 6.5625 9.1875 6.5625C7.73775 6.5625 6.5625 7.73775 6.5625 9.1875C6.5625 10.6372 7.73775 11.8125 9.1875 11.8125Z" fill="#0083CA"/>
<path d="M35.4375 40.6875C34.3992 40.6875 33.3841 40.3796 32.5208 39.8027C31.6574 39.2258 30.9845 38.4059 30.5871 37.4466C30.1898 36.4873 30.0858 35.4317 30.2884 34.4133C30.491 33.3949 30.991 32.4594 31.7252 31.7252C32.4594 30.991 33.3949 30.491 34.4133 30.2884C35.4317 30.0858 36.4873 30.1898 37.4466 30.5871C38.4059 30.9845 39.2258 31.6574 39.8027 32.5208C40.3796 33.3841 40.6875 34.3992 40.6875 35.4375C40.6833 36.8286 40.1289 38.1616 39.1452 39.1452C38.1616 40.1289 36.8286 40.6833 35.4375 40.6875ZM35.4375 32.8125C34.9183 32.8125 34.4108 32.9665 33.9791 33.2549C33.5475 33.5433 33.211 33.9533 33.0123 34.433C32.8136 34.9126 32.7617 35.4404 32.8629 35.9496C32.9642 36.4588 33.2142 36.9265 33.5813 37.2937C33.9485 37.6608 34.4162 37.9108 34.9254 38.0121C35.4346 38.1134 35.9624 38.0614 36.442 37.8627C36.9217 37.664 37.3317 37.3276 37.6201 36.8959C37.9085 36.4642 38.0625 35.9567 38.0625 35.4375C38.0604 34.7419 37.7832 34.0755 37.2914 33.5836C36.7995 33.0918 36.1331 32.8146 35.4375 32.8125Z" fill="#0083CA"/>
<path d="M39.375 21C39.3608 16.131 37.4203 11.4655 33.9774 8.0226C30.5345 4.57969 25.869 2.6392 21 2.625C17.8648 2.58028 14.7775 3.3975 12.075 4.9875L13.5188 7.21875C14.5447 6.72564 15.5962 6.28752 16.6687 5.90625C14.499 10.1875 13.2897 14.8907 13.125 19.6875H5.25C5.39707 17.5204 6.02475 15.4131 7.0875 13.5188L5.11875 11.8125C3.48563 14.5989 2.62483 17.7703 2.625 21C2.62466 23.4131 3.0997 25.8027 4.02301 28.0322C4.94632 30.2617 6.2998 32.2875 8.00614 33.9939C9.71249 35.7002 11.7383 37.0537 13.9678 37.977C16.1973 38.9003 18.5869 39.3753 21 39.375C23.3398 39.397 25.6603 38.9508 27.825 38.0625L27.0375 35.5688C24.8856 36.4889 22.5485 36.8934 20.2125 36.75C17.4135 32.4451 15.8684 27.446 15.75 22.3125H39.2437C39.3522 21.8839 39.3965 21.4416 39.375 21ZM16.8 36.225C14.19 35.4427 11.805 34.0477 9.84375 32.1563C7.23956 29.4915 5.61953 26.0201 5.25 22.3125H13.125C13.3056 27.1648 14.5608 31.9165 16.8 36.225ZM15.75 19.6875C15.8544 14.5707 17.3518 9.57926 20.0813 5.25H21.9188C24.6482 9.57926 26.1456 14.5707 26.25 19.6875H15.75ZM28.875 19.6875C28.7751 14.8236 27.5152 10.0538 25.2 5.775C28.2881 6.66511 31.0333 8.4718 33.0723 10.9561C35.1112 13.4403 36.3479 16.4851 36.6187 19.6875H28.875Z" fill="#0083CA"/>
</svg>
