<svg width="38" height="38" viewBox="0 0 37 37" fill="none" xmlns="http://www.w3.org/2000/svg">
<path d="M30.0625 4.625H6.9375C6.32419 4.625 5.73599 4.86864 5.30232 5.30232C4.86864 5.73599 4.625 6.32419 4.625 6.9375V30.0625C4.625 30.6758 4.86864 31.264 5.30232 31.6977C5.73599 32.1314 6.32419 32.375 6.9375 32.375H30.0625C30.6758 32.375 31.264 32.1314 31.6977 31.6977C32.1314 31.264 32.375 30.6758 32.375 30.0625V6.9375C32.375 6.32419 32.1314 5.73599 31.6977 5.30232C31.264 4.86864 30.6758 4.625 30.0625 4.625Z" stroke="white" stroke-width="2" stroke-linejoin="round"/>
<path d="M10.36 22.9978L14.7206 18.6372L18.103 22.0111L26.2083 13.875" stroke="white" stroke-width="2" stroke-linecap="round" stroke-linejoin="round"/>
<path d="M20.0416 13.875H26.2083V20.0417" stroke="white" stroke-width="2" stroke-linecap="round" stroke-linejoin="round"/>
</svg>
