<svg width="46" height="46" viewBox="0 0 50 50" fill="none" xmlns="http://www.w3.org/2000/svg">
<path d="M6.25 19.7917L25 8.33334L43.75 19.7917M39.5833 27.0833V40.4167C39.5833 40.7482 39.4516 41.0661 39.2172 41.3006C38.9828 41.535 38.6649 41.6667 38.3333 41.6667H11.6667C11.3351 41.6667 11.0172 41.535 10.7828 41.3006C10.5484 41.0661 10.4167 40.7482 10.4167 40.4167V27.0833" stroke="#0083CA" stroke-width="3.8" stroke-linecap="round" stroke-linejoin="round"/>
<path d="M29.1666 20.5125C27.0833 18.5896 21.527 17.95 21.527 21.7959C21.527 25.6417 29.1666 23.7188 29.1666 27.5625C29.1666 31.4063 22.9166 31.4084 20.8333 28.8438M24.9999 30.6292V33.3334M24.9999 18.9854V16.6667" stroke="#0083CA" stroke-width="3.8" stroke-linecap="round" stroke-linejoin="round"/>
</svg>
