<svg width="46" height="46" viewBox="0 0 46 46" fill="none" xmlns="http://www.w3.org/2000/svg">
<path d="M28.6063 27.8396C28.8938 28.1271 29.2376 28.2632 29.6375 28.2478C30.0362 28.2312 30.3792 28.0792 30.6667 27.7917C30.9542 27.5042 31.098 27.1604 31.098 26.7605C31.098 26.3618 30.9542 26.0187 30.6667 25.7313L27.6959 22.8083C28.0473 22.2653 28.3112 21.6903 28.4875 21.0833C28.6626 20.4764 28.7501 19.8375 28.7501 19.1667C28.7501 17.2819 28.0876 15.6924 26.7625 14.398C25.4362 13.1049 23.8626 12.4583 22.0417 12.4583C20.2209 12.4583 18.648 13.1049 17.3229 14.398C15.9966 15.6924 15.3334 17.2819 15.3334 19.1667C15.3334 21.0514 15.9966 22.6409 17.3229 23.9353C18.648 25.2284 20.2209 25.875 22.0417 25.875C22.7126 25.875 23.3438 25.8028 23.9354 25.6584C24.5257 25.5153 25.1084 25.2681 25.6834 24.9167L28.6063 27.8396ZM22.0417 23C20.9876 23 20.0855 22.6243 19.3354 21.873C18.5841 21.1229 18.2084 20.2208 18.2084 19.1667C18.2084 18.1125 18.5841 17.2097 19.3354 16.4584C20.0855 15.7084 20.9876 15.3333 22.0417 15.3333C23.064 15.3333 23.9584 15.7084 24.7251 16.4584C25.4917 17.2097 25.8751 18.1125 25.8751 19.1667C25.8751 20.2208 25.5001 21.1229 24.75 21.873C23.9987 22.6243 23.0959 23 22.0417 23ZM7.66675 34.5C6.61258 34.5 5.71047 34.125 4.96041 33.3749C4.20908 32.6236 3.83341 31.7208 3.83341 30.6667V9.58333C3.83341 8.52917 4.20908 7.62642 4.96041 6.87508C5.71047 6.12503 6.61258 5.75 7.66675 5.75H38.3334C39.3876 5.75 40.2903 6.12503 41.0417 6.87508C41.7917 7.62642 42.1667 8.52917 42.1667 9.58333V30.6667C42.1667 31.7208 41.7917 32.6236 41.0417 33.3749C40.2903 34.125 39.3876 34.5 38.3334 34.5H7.66675ZM7.66675 30.6667H38.3334V9.58333H7.66675V30.6667ZM3.83341 40.25C3.29036 40.25 2.83547 40.066 2.46875 39.698C2.10075 39.3313 1.91675 38.8764 1.91675 38.3333C1.91675 37.7903 2.10075 37.3354 2.46875 36.9687C2.83547 36.6007 3.29036 36.4167 3.83341 36.4167H42.1667C42.7098 36.4167 43.1647 36.6007 43.5314 36.9687C43.8994 37.3354 44.0834 37.7903 44.0834 38.3333C44.0834 38.8764 43.8994 39.3313 43.5314 39.698C43.1647 40.066 42.7098 40.25 42.1667 40.25H3.83341ZM7.66675 9.58333V30.6667V9.58333Z" fill="#0083CA"/>
</svg>
