<svg width="50" height="50" viewBox="0 0 50 50" fill="none" xmlns="http://www.w3.org/2000/svg">
<path d="M6.25 19.7913L25 8.33301L43.75 19.7913M39.5833 27.083V40.4163C39.5833 40.7479 39.4516 41.0658 39.2172 41.3002C38.9828 41.5346 38.6649 41.6663 38.3333 41.6663H11.6667C11.3351 41.6663 11.0172 41.5346 10.7828 41.3002C10.5484 41.0658 10.4167 40.7479 10.4167 40.4163V27.083" stroke="#FFDFAA" stroke-width="3.8" stroke-linecap="round" stroke-linejoin="round"/>
<path d="M29.1668 20.5118C27.0835 18.5889 21.5272 17.9493 21.5272 21.7952C21.5272 25.641 29.1668 23.7181 29.1668 27.5618C29.1668 31.4056 22.9168 31.4077 20.8335 28.8431M25.0002 30.6285V33.3327M25.0002 18.9848V16.666" stroke="#FFDFAA" stroke-width="3.8" stroke-linecap="round" stroke-linejoin="round"/>
</svg>
