<svg width="38" height="38" viewBox="0 0 38 38" fill="none" xmlns="http://www.w3.org/2000/svg">
<path d="M24.6858 28.5L28.7993 35.625H26.0585L21.945 28.5H16.0692L11.9557 35.625H9.215L13.3285 28.5H5.9375C5.62256 28.5 5.32051 28.3749 5.09781 28.1522C4.87511 27.9295 4.75 27.6274 4.75 27.3125V7.125H2.375C2.06006 7.125 1.75801 6.99989 1.53531 6.77719C1.31261 6.55449 1.1875 6.25244 1.1875 5.9375C1.1875 5.62256 1.31261 5.32051 1.53531 5.09781C1.75801 4.87511 2.06006 4.75 2.375 4.75H35.625C35.9399 4.75 36.242 4.87511 36.4647 5.09781C36.6874 5.32051 36.8125 5.62256 36.8125 5.9375C36.8125 6.25244 36.6874 6.55449 36.4647 6.77719C36.242 6.99989 35.9399 7.125 35.625 7.125H33.25V27.3125C33.25 27.6274 33.1249 27.9295 32.9022 28.1522C32.6795 28.3749 32.3774 28.5 32.0625 28.5H24.6858ZM30.875 7.125H7.125V26.125H30.875V7.125ZM13.0625 16.625C13.3774 16.625 13.6795 16.7501 13.9022 16.9728C14.1249 17.1955 14.25 17.4976 14.25 17.8125V20.1875C14.25 20.5024 14.1249 20.8045 13.9022 21.0272C13.6795 21.2499 13.3774 21.375 13.0625 21.375C12.7476 21.375 12.4455 21.2499 12.2228 21.0272C12.0001 20.8045 11.875 20.5024 11.875 20.1875V17.8125C11.875 17.4976 12.0001 17.1955 12.2228 16.9728C12.4455 16.7501 12.7476 16.625 13.0625 16.625ZM19 14.25C19.3149 14.25 19.617 14.3751 19.8397 14.5978C20.0624 14.8205 20.1875 15.1226 20.1875 15.4375V20.1875C20.1875 20.5024 20.0624 20.8045 19.8397 21.0272C19.617 21.2499 19.3149 21.375 19 21.375C18.6851 21.375 18.383 21.2499 18.1603 21.0272C17.9376 20.8045 17.8125 20.5024 17.8125 20.1875V15.4375C17.8125 15.1226 17.9376 14.8205 18.1603 14.5978C18.383 14.3751 18.6851 14.25 19 14.25ZM24.9375 11.875C25.2524 11.875 25.5545 12.0001 25.7772 12.2228C25.9999 12.4455 26.125 12.7476 26.125 13.0625V20.1875C26.125 20.5024 25.9999 20.8045 25.7772 21.0272C25.5545 21.2499 25.2524 21.375 24.9375 21.375C24.6226 21.375 24.3205 21.2499 24.0978 21.0272C23.8751 20.8045 23.75 20.5024 23.75 20.1875V13.0625C23.75 12.7476 23.8751 12.4455 24.0978 12.2228C24.3205 12.0001 24.6226 11.875 24.9375 11.875Z" fill="#535251"/>
</svg>
