<svg width="46" height="46" viewBox="0 0 46 46" fill="none" xmlns="http://www.w3.org/2000/svg">
<path d="M28.6061 27.8396C28.8936 28.1271 29.2373 28.2632 29.6373 28.2478C30.0359 28.2312 30.379 28.0792 30.6665 27.7917C30.954 27.5042 31.0978 27.1604 31.0978 26.7605C31.0978 26.3618 30.954 26.0187 30.6665 25.7313L27.6957 22.8083C28.0471 22.2653 28.3109 21.6903 28.4873 21.0833C28.6623 20.4764 28.7498 19.8375 28.7498 19.1667C28.7498 17.2819 28.0873 15.6924 26.7623 14.398C25.4359 13.1049 23.8623 12.4583 22.0415 12.4583C20.2207 12.4583 18.6477 13.1049 17.3227 14.398C15.9963 15.6924 15.3332 17.2819 15.3332 19.1667C15.3332 21.0514 15.9963 22.6409 17.3227 23.9353C18.6477 25.2284 20.2207 25.875 22.0415 25.875C22.7123 25.875 23.3436 25.8028 23.9352 25.6584C24.5255 25.5153 25.1082 25.2681 25.6832 24.9167L28.6061 27.8396ZM22.0415 23C20.9873 23 20.0852 22.6243 19.3352 21.873C18.5838 21.1229 18.2082 20.2208 18.2082 19.1667C18.2082 18.1125 18.5838 17.2097 19.3352 16.4584C20.0852 15.7084 20.9873 15.3333 22.0415 15.3333C23.0637 15.3333 23.9582 15.7084 24.7248 16.4584C25.4915 17.2097 25.8748 18.1125 25.8748 19.1667C25.8748 20.2208 25.4998 21.1229 24.7498 21.873C23.9984 22.6243 23.0957 23 22.0415 23ZM7.6665 34.5C6.61234 34.5 5.71023 34.125 4.96017 33.3749C4.20884 32.6236 3.83317 31.7208 3.83317 30.6667V9.58333C3.83317 8.52917 4.20884 7.62642 4.96017 6.87508C5.71023 6.12503 6.61234 5.75 7.6665 5.75H38.3332C39.3873 5.75 40.2901 6.12503 41.0414 6.87508C41.7915 7.62642 42.1665 8.52917 42.1665 9.58333V30.6667C42.1665 31.7208 41.7915 32.6236 41.0414 33.3749C40.2901 34.125 39.3873 34.5 38.3332 34.5H7.6665ZM7.6665 30.6667H38.3332V9.58333H7.6665V30.6667ZM3.83317 40.25C3.29012 40.25 2.83523 40.066 2.4685 39.698C2.1005 39.3313 1.9165 38.8764 1.9165 38.3333C1.9165 37.7903 2.1005 37.3354 2.4685 36.9687C2.83523 36.6007 3.29012 36.4167 3.83317 36.4167H42.1665C42.7096 36.4167 43.1645 36.6007 43.5312 36.9687C43.8992 37.3354 44.0832 37.7903 44.0832 38.3333C44.0832 38.8764 43.8992 39.3313 43.5312 39.698C43.1645 40.066 42.7096 40.25 42.1665 40.25H3.83317ZM7.6665 9.58333V30.6667V9.58333Z" fill="#FFDFAA"/>
</svg>
