<svg width="27" height="32" viewBox="0 0 27 32" fill="none" xmlns="http://www.w3.org/2000/svg">
<path d="M21.1113 14C21.6621 14.1667 22.1865 14.3929 22.6846 14.6786C23.1826 14.9643 23.7041 15.3988 24.249 15.9821C24.7939 16.5655 25.2598 17.253 25.6465 18.0446C26.0332 18.8363 26.3555 19.8601 26.6133 21.1161C26.8711 22.372 27 23.7798 27 25.3393C27 27.1726 26.4141 28.7411 25.2422 30.0446C24.0703 31.3482 22.6582 32 21.0059 32H5.99414C4.3418 32 2.92969 31.3482 1.75781 30.0446C0.585938 28.7411 0 27.1726 0 25.3393C0 23.7798 0.128906 22.372 0.386719 21.1161C0.644531 19.8601 0.966797 18.8363 1.35352 18.0446C1.74023 17.253 2.20605 16.5655 2.75098 15.9821C3.2959 15.3988 3.81738 14.9643 4.31543 14.6786C4.81348 14.3929 5.33789 14.1667 5.88867 14C4.96289 12.5119 4.5 10.8929 4.5 9.14286C4.5 7.90476 4.7373 6.72321 5.21191 5.59821C5.68652 4.47321 6.32812 3.5 7.13672 2.67857C7.94531 1.85714 8.90332 1.20536 10.0107 0.723214C11.1182 0.241071 12.2812 0 13.5 0C14.7188 0 15.8818 0.241071 16.9893 0.723214C18.0967 1.20536 19.0547 1.85714 19.8633 2.67857C20.6719 3.5 21.3135 4.47321 21.7881 5.59821C22.2627 6.72321 22.5 7.90476 22.5 9.14286C22.5 10.8929 22.0371 12.5119 21.1113 14ZM13.5 2.28571C11.6367 2.28571 10.0459 2.95536 8.72754 4.29464C7.40918 5.63393 6.75 7.25 6.75 9.14286C6.75 11.0357 7.40918 12.6518 8.72754 13.9911C10.0459 15.3304 11.6367 16 13.5 16C15.3633 16 16.9541 15.3304 18.2725 13.9911C19.5908 12.6518 20.25 11.0357 20.25 9.14286C20.25 7.25 19.5908 5.63393 18.2725 4.29464C16.9541 2.95536 15.3633 2.28571 13.5 2.28571ZM21.0059 29.7143C22.0371 29.7143 22.9189 29.2887 23.6514 28.4375C24.3838 27.5863 24.75 26.5536 24.75 25.3393C24.75 22.494 24.29 20.25 23.3701 18.6071C22.4502 16.9643 21.1289 16.1012 19.4062 16.0179C17.707 17.5298 15.7383 18.2857 13.5 18.2857C11.2617 18.2857 9.29297 17.5298 7.59375 16.0179C5.87109 16.1012 4.5498 16.9643 3.62988 18.6071C2.70996 20.25 2.25 22.494 2.25 25.3393C2.25 26.5536 2.61621 27.5863 3.34863 28.4375C4.08105 29.2887 4.96289 29.7143 5.99414 29.7143H21.0059Z" fill="#535251"/>
</svg>
