<svg width="44" height="44" viewBox="0 0 44 44" fill="none" xmlns="http://www.w3.org/2000/svg">
<path d="M36.6665 5.5H7.33317C6.36071 5.5 5.42808 5.88631 4.74045 6.57394C4.05281 7.26157 3.6665 8.19421 3.6665 9.16667V12.8333C3.67037 13.4732 3.84162 14.101 4.16324 14.6541C4.48487 15.2073 4.94567 15.6667 5.49984 15.9867V34.8333C5.49984 35.8058 5.88615 36.7384 6.57378 37.4261C7.26141 38.1137 8.19404 38.5 9.1665 38.5H34.8332C35.8056 38.5 36.7383 38.1137 37.4259 37.4261C38.1135 36.7384 38.4998 35.8058 38.4998 34.8333V15.9867C39.054 15.6667 39.5148 15.2073 39.8364 14.6541C40.1581 14.101 40.3293 13.4732 40.3332 12.8333V9.16667C40.3332 8.19421 39.9469 7.26157 39.2592 6.57394C38.5716 5.88631 37.639 5.5 36.6665 5.5ZM7.33317 9.16667H36.6665V12.8333H7.33317V9.16667ZM9.1665 34.8333V16.5H34.8332V34.8333H9.1665Z" fill="#FFDFAA"/>
<path d="M14.6665 20.167H29.3332V23.8337H14.6665V20.167Z" fill="#FFDFAA"/>
</svg>
