<svg width="31" height="31" viewBox="0 0 31 31" fill="none" xmlns="http://www.w3.org/2000/svg">
<path d="M27.0625 1.625H3.9375C3.32419 1.625 2.73599 1.86864 2.30232 2.30232C1.86864 2.73599 1.625 3.32419 1.625 3.9375V27.0625C1.625 27.6758 1.86864 28.264 2.30232 28.6977C2.73599 29.1314 3.32419 29.375 3.9375 29.375H27.0625C27.6758 29.375 28.264 29.1314 28.6977 28.6977C29.1314 28.264 29.375 27.6758 29.375 27.0625V3.9375C29.375 3.32419 29.1314 2.73599 28.6977 2.30232C28.264 1.86864 27.6758 1.625 27.0625 1.625Z" stroke="#535251" stroke-width="2" stroke-linejoin="round"/>
<path d="M7.35986 19.9978L11.7205 15.6372L15.1029 19.0111L23.2082 10.875" stroke="#535251" stroke-width="2" stroke-linecap="round" stroke-linejoin="round"/>
<path d="M17.0415 10.875H23.2082V17.0417" stroke="#535251" stroke-width="2" stroke-linecap="round" stroke-linejoin="round"/>
</svg>
