<svg width="32" height="32" viewBox="0 0 32 32" fill="none" xmlns="http://www.w3.org/2000/svg">
<path d="M28 16V22H4V6H11V4H4C3.46957 4 2.96086 4.21071 2.58579 4.58579C2.21071 4.96086 2 5.46957 2 6V22C2 22.5304 2.21071 23.0391 2.58579 23.4142C2.96086 23.7893 3.46957 24 4 24H12V28H8V30H24V28H20V24H28C28.5304 24 29.0391 23.7893 29.4142 23.4142C29.7893 23.0391 30 22.5304 30 22V16H28ZM18 28H14V24H18V28Z" fill="#535251"/>
<path d="M18 18.0001H17.99C17.7745 17.9979 17.5656 17.9261 17.3942 17.7954C17.2228 17.6648 17.0982 17.4823 17.039 17.2751L15.246 11.0001H11V9.00011H16C16.2174 8.99999 16.4288 9.07069 16.6024 9.20151C16.776 9.33232 16.9022 9.51614 16.962 9.72511L18.036 13.4851L21.045 3.70511C21.1099 3.50216 21.2371 3.32482 21.4086 3.19826C21.58 3.07171 21.7869 3.00238 22 3.00011C22.2107 2.99694 22.4168 3.06177 22.5878 3.18498C22.7587 3.30819 22.8854 3.48322 22.949 3.68411L24.72 9.00011H30V11.0001H24C23.79 11.0002 23.5854 10.9341 23.415 10.8114C23.2447 10.6886 23.1173 10.5153 23.051 10.3161L22.038 7.27611L18.956 17.2941C18.8931 17.4986 18.7663 17.6775 18.5943 17.8045C18.4222 17.9316 18.2139 18.0002 18 18.0001Z" fill="#535251"/>
</svg>
